<svg width="40" height="44" viewBox="0 0 40 44" fill="none" xmlns="http://www.w3.org/2000/svg">
<path d="M5.7759 9.25265C6.39601 8.62312 6.38839 7.61009 5.75886 6.98997C5.12933 6.36986 4.1163 6.37748 3.49618 7.00701L5.7759 9.25265ZM12.8 5.55448L11.6601 4.4317C11.0466 5.05454 11.0466 6.05448 11.6601 6.6773L12.8 5.55448ZM15.161 10.2312C15.7811 10.8608 16.7941 10.8684 17.4236 10.2483C18.0532 9.62816 18.0608 8.61512 17.4407 7.9856L15.161 10.2312ZM17.4407 3.1231C18.0608 2.49355 18.0531 1.48052 17.4236 0.860423C16.7941 0.240326 15.781 0.247986 15.1609 0.877532L17.4407 3.1231ZM20 40.4C15.7115 40.4 12.6584 40.3965 10.3409 40.0802C8.07196 39.7705 6.74809 39.1881 5.7759 38.2011L3.49618 40.4468C5.16002 42.1359 7.2755 42.8915 9.90818 43.2508C12.4923 43.6035 15.8033 43.6 20 43.6V40.4ZM0.4 23.7269C0.4 27.9893 0.396701 31.3448 0.743355 33.9622C1.09578 36.6233 1.83564 38.761 3.49618 40.4468L5.7759 38.2011C4.8004 37.2108 4.22224 35.8571 3.91566 33.5421C3.6033 31.1836 3.6 28.0785 3.6 23.7269H0.4ZM36.4 23.7269C36.4 28.0785 36.3967 31.1836 36.0843 33.5421C35.7778 35.8571 35.1996 37.2108 34.2241 38.2011L36.5038 40.4468C38.1644 38.761 38.9042 36.6233 39.2566 33.9622C39.6033 31.3448 39.6 27.9893 39.6 23.7269H36.4ZM20 43.6C24.1967 43.6 27.5077 43.6035 30.0918 43.2508C32.7245 42.8915 34.84 42.1359 36.5038 40.4468L34.2241 38.2011C33.2519 39.1881 31.928 39.7705 29.6591 40.0802C27.3416 40.3965 24.2885 40.4 20 40.4V43.6ZM20 7.05379C24.2885 7.05379 27.3416 7.05729 29.6591 7.3736C31.928 7.68328 33.2519 8.2657 34.2241 9.25265L36.5038 7.00701C34.84 5.31792 32.7245 4.56232 30.0918 4.203C27.5077 3.85029 24.1967 3.85379 20 3.85379V7.05379ZM39.6 23.7269C39.6 19.4645 39.6033 16.1091 39.2566 13.4916C38.9042 10.8305 38.1644 8.69275 36.5038 7.00701L34.2241 9.25265C35.1996 10.2429 35.7778 11.5967 36.0843 13.9117C36.3967 16.2702 36.4 19.3753 36.4 23.7269H39.6ZM3.6 23.7269C3.6 19.3753 3.6033 16.2702 3.91566 13.9117C4.22224 11.5967 4.8004 10.2429 5.7759 9.25265L3.49618 7.00701C1.83564 8.69275 1.09578 10.8305 0.743355 13.4916C0.396701 16.1091 0.4 19.4645 0.4 23.7269H3.6ZM20 3.85379C17.1704 3.85379 14.7581 3.85335 12.7191 3.95653L12.8809 7.15244C14.8214 7.05424 17.143 7.05379 20 7.05379V3.85379ZM11.6601 6.6773L15.161 10.2312L17.4407 7.9856L13.9399 4.43166L11.6601 6.6773ZM13.9399 6.67727L17.4407 3.1231L15.1609 0.877532L11.6601 4.4317L13.9399 6.67727Z" fill="#63A38B"/>
<path d="M13 25L17 29L27 19" stroke="#63A38B" stroke-width="3.2" stroke-linecap="round" stroke-linejoin="round"/>
</svg>
