<svg width="40" height="36" viewBox="0 0 40 36" fill="none" xmlns="http://www.w3.org/2000/svg">
<path d="M38.333 22H37.2214C36.8047 22 36.3914 22.0317 35.9797 22.095L24.2364 13.2883L27.0497 10.595C27.7147 9.95833 27.738 8.90167 27.1014 8.23833C26.463 7.57333 25.4064 7.55166 24.7447 8.18667L17.7897 14.845C17.443 15.1917 16.9714 15.37 16.4764 15.3283C15.9797 15.2883 15.543 15.0367 15.2447 14.62C14.788 13.9867 14.928 12.995 15.5247 12.3967L23.3631 5.015C24.848 3.62 27.1697 3.27833 28.9864 4.19L32.8464 6.12C33.9964 6.695 35.2864 6.99833 36.5714 6.99833H38.3314C39.2531 6.99833 39.9981 6.25333 39.9981 5.33167C39.9981 4.41 39.2531 3.665 38.3314 3.665H36.5714C35.7997 3.665 35.0247 3.48333 34.3347 3.13833L30.4781 1.20833C27.4381 -0.313335 23.5564 0.251665 21.0764 2.58833L20.0464 3.55833L18.8797 2.495C17.348 1.1 15.3647 0.331665 13.2297 0.331665C11.9447 0.331665 10.663 0.634998 9.51805 1.20667L5.66138 3.13667C4.96971 3.48167 4.19471 3.66333 3.42305 3.66333H1.66638C0.744714 3.66333 -0.000286458 4.40833 -0.000286458 5.33C-0.000286458 6.25167 0.744714 6.99667 1.66638 6.99667H3.42638C4.71138 6.99667 6.00138 6.69167 7.15305 6.11833L11.013 4.18833C12.7164 3.33167 15.1097 3.56333 16.6364 4.95833L17.6147 5.85L13.2047 10.0033C11.4164 11.79 11.1314 14.615 12.5414 16.5667C13.408 17.7717 15.1297 18.665 16.6147 18.665C17.9364 18.665 19.2047 18.145 20.1214 17.2267L21.7981 15.6217L32.3747 23.5533C32.323 23.59 22.0447 31.2967 22.0447 31.2967C20.8397 32.2333 19.1581 32.2333 17.928 31.2783L7.77638 23.665C6.34471 22.59 4.56805 21.9983 2.77638 21.9983H1.66471C0.743047 21.9983 -0.00195312 22.7433 -0.00195312 23.665C-0.00195312 24.5867 0.743047 25.3317 1.66471 25.3317H2.77638C3.85138 25.3317 4.91638 25.6867 5.77638 26.3317L15.9047 33.9283C17.1131 34.8683 18.5614 35.3383 20.0064 35.3383C21.4431 35.3383 22.878 34.8733 24.0681 33.9467L34.223 26.3333C35.0814 25.6883 36.1464 25.3333 37.2214 25.3333H38.333C39.2547 25.3333 39.9997 24.5883 39.9997 23.6667C39.9997 22.745 39.2547 22 38.333 22Z" fill="#63A38B"/>
</svg>
