<svg width="40" height="38" viewBox="0 0 40 38" fill="none" xmlns="http://www.w3.org/2000/svg">
<path d="M31.6667 7.33329H28.3333V5.66663C28.3333 4.34054 27.8065 3.06877 26.8689 2.13109C25.9312 1.19341 24.6594 0.666626 23.3333 0.666626H5C3.67392 0.666626 2.40215 1.19341 1.46447 2.13109C0.526784 3.06877 0 4.34054 0 5.66663L0 30.6666H3.40167C3.35878 30.9424 3.33595 31.2209 3.33333 31.5C3.33333 33.0471 3.94791 34.5308 5.04188 35.6248C6.13584 36.7187 7.61957 37.3333 9.16667 37.3333C10.7138 37.3333 12.1975 36.7187 13.2915 35.6248C14.3854 34.5308 15 33.0471 15 31.5C14.9974 31.2209 14.9745 30.9424 14.9317 30.6666H25.0683C25.0254 30.9424 25.0026 31.2209 25 31.5C25 33.0471 25.6146 34.5308 26.7085 35.6248C27.8025 36.7187 29.2862 37.3333 30.8333 37.3333C32.3804 37.3333 33.8642 36.7187 34.9581 35.6248C36.0521 34.5308 36.6667 33.0471 36.6667 31.5C36.6641 31.2209 36.6412 30.9424 36.5983 30.6666H40V15.6666C39.9974 13.4573 39.1185 11.3392 37.5563 9.77699C35.9941 8.21476 33.876 7.33594 31.6667 7.33329ZM31.6667 10.6666C32.9927 10.6666 34.2645 11.1934 35.2022 12.1311C36.1399 13.0688 36.6667 14.3405 36.6667 15.6666V17.3333H28.3333V10.6666H31.6667ZM11.6667 31.5C11.6667 32.163 11.4033 32.7989 10.9344 33.2677C10.4656 33.7366 9.82971 34 9.16667 34C8.50362 34 7.86774 33.7366 7.3989 33.2677C6.93006 32.7989 6.66667 32.163 6.66667 31.5C6.66769 31.2151 6.7202 30.9328 6.82167 30.6666H11.5117C11.6131 30.9328 11.6656 31.2151 11.6667 31.5ZM25 27.3333H3.33333V5.66663C3.33333 5.2246 3.50893 4.80068 3.82149 4.48811C4.13405 4.17555 4.55797 3.99996 5 3.99996H23.3333C23.7754 3.99996 24.1993 4.17555 24.5118 4.48811C24.8244 4.80068 25 5.2246 25 5.66663V27.3333ZM33.3333 31.5C33.3333 32.163 33.0699 32.7989 32.6011 33.2677C32.1323 33.7366 31.4964 34 30.8333 34C30.1703 34 29.5344 33.7366 29.0656 33.2677C28.5967 32.7989 28.3333 32.163 28.3333 31.5C28.3341 31.2151 28.3866 30.9327 28.4883 30.6666H33.1783C33.2801 30.9327 33.3326 31.2151 33.3333 31.5ZM28.3333 27.3333V20.6666H36.6667V27.3333H28.3333Z" fill="#63A38B"/>
</svg>
