<svg width="21" height="16" viewBox="0 0 21 16" fill="none" xmlns="http://www.w3.org/2000/svg">
<path fill-rule="evenodd" clip-rule="evenodd" d="M1.67157 1.17157C0.5 2.34315 0.5 4.22876 0.5 8C0.5 11.7712 0.5 13.6569 1.67157 14.8284C2.84315 16 4.72876 16 8.5 16H12.5C16.2712 16 18.1569 16 19.3284 14.8284C20.5 13.6569 20.5 11.7712 20.5 8C20.5 4.22876 20.5 2.34315 19.3284 1.17157C18.1569 0 16.2712 0 12.5 0H8.5C4.72876 0 2.84315 0 1.67157 1.17157ZM17.0762 3.51986C17.3413 3.83807 17.2983 4.31099 16.9801 4.57617L14.7837 6.40657C13.8973 7.14523 13.1789 7.74392 12.5448 8.15172C11.8843 8.57653 11.2411 8.84488 10.5 8.84488C9.75892 8.84488 9.11567 8.57653 8.45518 8.15172C7.82112 7.74392 7.10271 7.14523 6.21636 6.40658L4.01986 4.57617C3.70165 4.31099 3.65866 3.83807 3.92383 3.51986C4.18901 3.20165 4.66193 3.15866 4.98014 3.42383L7.13903 5.22291C8.07199 6.00038 8.71973 6.53841 9.26658 6.89013C9.79594 7.23059 10.1549 7.34487 10.5 7.34487C10.8451 7.34487 11.2041 7.23059 11.7334 6.89013C12.2803 6.53841 12.928 6.00038 13.861 5.22291L16.0199 3.42383C16.3381 3.15866 16.811 3.20165 17.0762 3.51986Z" fill="#63A38B"/>
</svg>
