<svg width="19" height="19" viewBox="0 0 19 19" fill="none" xmlns="http://www.w3.org/2000/svg">
<path d="M5.77322 6.59369C6.44657 7.99614 7.36448 9.31057 8.52695 10.473C9.68943 11.6355 11.0039 12.5534 12.4063 13.2268C12.5269 13.2847 12.5873 13.3137 12.6636 13.3359C12.9348 13.415 13.2679 13.3582 13.4976 13.1937C13.5622 13.1474 13.6175 13.0921 13.7281 12.9815C14.0663 12.6433 14.2354 12.4742 14.4055 12.3636C15.0468 11.9467 15.8736 11.9467 16.5149 12.3636C16.685 12.4742 16.8541 12.6433 17.1923 12.9815L17.3808 13.1701C17.895 13.6842 18.1521 13.9413 18.2917 14.2174C18.5694 14.7665 18.5694 15.4149 18.2917 15.964C18.1521 16.2401 17.895 16.4972 17.3808 17.0113L17.2283 17.1638C16.7159 17.6762 16.4597 17.9324 16.1114 18.1281C15.7249 18.3452 15.1246 18.5013 14.6813 18.5C14.2818 18.4988 14.0088 18.4213 13.4627 18.2663C10.528 17.4334 7.75879 15.8617 5.44852 13.5515C3.13825 11.2412 1.56664 8.47199 0.733688 5.53731C0.578694 4.99123 0.501196 4.71819 0.500008 4.31868C0.498689 3.87537 0.6548 3.27507 0.871917 2.88857C1.06758 2.54025 1.32378 2.28406 1.83617 1.77167L1.98867 1.61917C2.50282 1.10502 2.75989 0.847944 3.03599 0.708296C3.58508 0.430568 4.23353 0.430568 4.78262 0.708296C5.05872 0.847943 5.31579 1.10502 5.82994 1.61917L6.01847 1.80769C6.3567 2.14592 6.52581 2.31504 6.63638 2.4851C7.05335 3.12641 7.05335 3.95319 6.63638 4.5945C6.52581 4.76456 6.3567 4.93368 6.01847 5.27191C5.90788 5.3825 5.85258 5.43779 5.8063 5.50243C5.64182 5.73214 5.58503 6.06519 5.66409 6.33642C5.68634 6.41275 5.7153 6.47306 5.77322 6.59369Z" fill="#63A38B"/>
</svg>
