<svg width="44" height="44" viewBox="0 0 44 44" fill="none" xmlns="http://www.w3.org/2000/svg">
<path d="M12 22H10C6.22876 22 4.34315 22 3.17157 23.1716C2 24.3431 2 26.2288 2 30V34C2 37.7712 2 39.6569 3.17157 40.8284C4.34315 42 6.22876 42 10 42H14C17.7712 42 19.6569 42 20.8284 40.8284C22 39.6569 22 37.7712 22 34V32" stroke="#63A38B" stroke-width="3.2"/>
<path d="M22 12H20C16.2288 12 14.3431 12 13.1716 13.1716C12 14.3431 12 16.2288 12 20V24C12 27.7712 12 29.6569 13.1716 30.8284C14.3431 32 16.2288 32 20 32H24C27.7712 32 29.6569 32 30.8284 30.8284C32 29.6569 32 27.7712 32 24V22" stroke="#63A38B" stroke-width="3.2"/>
<path d="M22 10C22 6.22876 22 4.34315 23.1716 3.17157C24.3431 2 26.2288 2 30 2H34C37.7712 2 39.6569 2 40.8284 3.17157C42 4.34315 42 6.22876 42 10V14C42 17.7712 42 19.6569 40.8284 20.8284C39.6569 22 37.7712 22 34 22H30C26.2288 22 24.3431 22 23.1716 20.8284C22 19.6569 22 17.7712 22 14V10Z" stroke="#63A38B" stroke-width="3.2"/>
</svg>
